<?xml version="1.0" standalone="no"?>
<!DOCTYPE svg PUBLIC "-//W3C//DTD SVG 20010904//EN"
 "http://www.w3.org/TR/2001/REC-SVG-20010904/DTD/svg10.dtd">
<svg version="1.0" xmlns="http://www.w3.org/2000/svg"
 width="4065.000000pt" height="974.000000pt" viewBox="0 0 4065.000000 974.000000"
 preserveAspectRatio="xMidYMid meet">

<g transform="translate(0.000000,974.000000) scale(0.100000,-0.100000)"
fill="#000000" stroke="none">
<path d="M27525 3470 c-119 -24 -237 -90 -309 -172 l-44 -50 -6 51 c-3 28 -9
74 -12 101 l-6 50 -200 0 -201 0 7 -77 c3 -42 6 -505 6 -1030 l0 -953 230 0
230 0 0 361 0 362 44 -41 c118 -109 315 -150 498 -103 236 61 409 241 480 502
20 73 23 107 23 259 0 204 -11 261 -82 409 -78 163 -221 283 -388 326 -62 16
-202 18 -270 5z m114 -385 c87 -48 143 -145 163 -284 21 -149 -16 -315 -88
-400 -56 -65 -123 -95 -214 -95 -116 0 -197 50 -247 152 -28 56 -28 59 -28
247 0 177 2 193 23 240 36 79 104 141 182 166 50 17 154 4 209 -26z"/>
<path d="M28980 3475 c-8 -2 -49 -9 -90 -15 -138 -23 -320 -89 -320 -117 0
-19 71 -266 79 -275 3 -4 33 6 66 22 136 66 371 94 475 56 75 -28 120 -84 120
-151 l0 -35 -68 0 c-170 0 -351 -39 -488 -105 -193 -93 -294 -249 -294 -451 0
-217 146 -397 358 -443 173 -37 365 12 489 123 l50 45 12 -74 12 -75 211 0
c196 0 210 1 202 18 -4 9 -11 235 -14 502 -7 451 -9 490 -28 563 -57 209 -181
334 -387 392 -55 16 -341 31 -385 20z m350 -896 c0 -116 -14 -168 -57 -219
-111 -130 -315 -113 -353 30 -44 163 93 277 338 279 l72 1 0 -91z"/>
<path d="M29940 3445 c0 -3 124 -314 275 -692 156 -390 275 -701 275 -719 0
-43 -70 -145 -134 -196 -57 -45 -192 -114 -241 -124 l-32 -6 47 -190 c27 -104
51 -192 54 -195 9 -10 115 16 196 49 161 64 309 189 416 352 133 206 227 429
494 1186 101 283 185 521 187 528 4 9 -48 12 -241 12 l-245 0 -10 -37 c-6 -21
-62 -245 -125 -498 -63 -253 -117 -453 -120 -445 -2 8 -14 51 -26 95 -11 44
-75 261 -142 483 l-121 402 -254 0 c-139 0 -253 -2 -253 -5z"/>
</g>
</svg>
